<?xml version="1.0" encoding="utf-8"?>
<!DOCTYPE svg PUBLIC "-//W3C//DTD SVG 20010904//EN" "http://www.w3.org/TR/2001/REC-SVG-20010904/DTD/svg10.dtd">
<svg version="1.0" width="185.25pt" height="185.25pt" viewBox="0 0 185.25 185.25" preserveAspectRatio="xMidYMid meet" xmlns="http://www.w3.org/2000/svg">
  <g transform="translate(0,185.25)scale(.01875,.01875)" fill="#0087FF">
    <path id="path1" d="M 4376 -7469 l -251 1 -30 8 -30 8 -390 12 -390 12 -155 -2 -155 -2 -380 17 -380 16 -186 -6 -186 -6 -29 12 -29 12 -330 2 -329 3 -53 58 -52 59 -15 30 -14 30 -11 45 -12 45 -9 73 -9 72 -6 10 -6 9 -19 103 -20 103 -25 105 -24 105 -21 100 -21 100 -15 50 -15 50 -3 45 -3 45 -17 48 -16 48 0 28 0 27 -16 55 -16 54 -8 50 -8 50 -16 40 -15 40 -1 46 0 47 -20 43 -20 44 0 45 -1 45 -19 55 -19 55 -1 36 0 37 -20 43 -20 44 0 48 0 48 -15 29 -15 28 -6 59 -6 58 -14 38 -14 37 0 41 0 40 -19 47 -19 47 -5 60 -5 60 -16 30 -16 30 0 47 0 48 -20 52 -20 53 0 40 -1 40 -19 40 -19 40 -1 51 0 52 -20 41 -20 41 0 49 0 48 -14 39 -13 39 -7 54 -7 54 -13 26 -13 26 -6 67 -6 66 -16 37 -15 38 0 30 0 31 -15 65 -16 66 -16 70 -16 70 -8 60 -9 60 -11 60 -11 60 -19 63 -19 62 0 25 0 24 30 16 30 15 34 25 34 24 68 28 69 28 170 7 170 7 290 10 290 11 59 16 58 16 57 -7 57 -6 279 11 280 12 97 -16 98 -16 90 0 91 0 33 -14 33 -14 17 -23 16 -23 0 -85 0 -84 35 -176 36 -176 19 -85 19 -85 21 -115 22 -115 18 -85 18 -85 22 -125 22 -125 9 -35 9 -35 23 -40 22 -39 43 -31 44 -30 251 -1 252 -1 90 -10 90 -10 277 -2 278 -1 396 -7 396 -6 51 -44 52 -44 11 -22 11 -22 7 -302 7 -303 10 -32 9 -33 0 -105 0 -105 -11 -40 -11 -40 -24 -51 -23 -52 -17 -6 -16 -6 -34 0 -35 0 -30 -16 -30 -15 -232 5 -232 4 -140 11 -140 10 -395 7 -395 7 -165 9 -165 9 -25 -19 -25 -19 -20 -34 -20 -34 2 -65 1 -65 20 -60 21 -60 16 -110 17 -110 12 -30 13 -30 41 -37 41 -37 38 -7 38 -7 80 11 80 12 660 0 660 1 15 -22 15 -22 53 -57 52 -57 20 -99 19 -99 20 -85 19 -85 11 -28 11 -28 0 -27 0 -27 20 -53 20 -52 0 -31 0 -30 15 -29 15 -29 10 -58 9 -58 25 -85 25 -85 18 -64 18 -63 -28 -22 -28 -21 -42 -39 -42 -39 -43 -18 -44 -19 -42 0 -42 0 -34 -25 -34 -25 -250 1 z " fill="#0087FF" />
    <path id="path2" d="M 4358 -7285 l 164 4 36 12 37 12 40 16 41 16 27 21 27 22 20 43 20 44 0 40 0 40 -30 165 -29 165 -21 70 -20 70 -15 68 -15 67 -31 63 -31 62 -22 23 -21 24 -40 21 -40 20 -60 13 -60 13 -495 1 -495 1 -125 8 -125 8 -69 31 -68 32 -62 63 -61 63 -28 52 -28 52 -25 97 -25 98 -1 117 -1 116 34 67 34 68 64 58 64 59 71 22 70 21 161 1 160 1 315 -4 315 -3 250 -15 250 -14 70 6 70 6 35 11 35 11 36 24 36 24 16 37 16 37 12 56 11 56 -11 176 -11 176 -11 52 -11 51 -19 44 -20 44 -42 24 -42 23 -85 17 -85 16 -313 5 -312 5 -270 5 -270 5 -186 10 -186 10 -69 15 -70 14 -49 27 -49 27 -54 52 -54 53 -26 44 -26 45 -30 75 -30 76 -26 123 -26 124 -15 84 -15 85 -10 17 -9 18 0 27 0 27 -20 88 -20 89 -15 68 -15 67 -17 84 -17 84 -36 70 -35 71 -58 31 -57 32 -85 13 -85 13 -262 -7 -263 -7 -160 -10 -160 -9 -160 -5 -160 -5 -150 -11 -150 -10 -84 -14 -83 -14 -44 -26 -44 -26 -15 -52 -15 -52 15 -75 15 -75 15 -65 15 -65 21 -75 21 -75 14 -63 14 -62 10 -52 9 -53 20 -80 21 -80 16 -80 16 -80 24 -100 23 -100 20 -95 19 -95 12 -60 12 -60 29 -125 29 -125 15 -73 15 -72 25 -108 25 -107 15 -77 15 -78 24 -98 24 -97 5 -35 6 -35 15 -70 15 -70 16 -75 17 -75 23 -100 23 -100 16 -77 16 -78 24 -102 24 -103 21 -105 22 -105 10 -43 9 -42 24 -108 25 -107 21 -94 21 -95 31 -80 31 -81 24 -31 23 -31 58 -26 57 -26 90 -10 90 -10 145 -7 145 -6 360 -3 360 -3 200 -11 200 -11 165 -5 165 -5 275 -1 275 -1 195 -14 195 -13 163 4 z " fill="#0087FF" />
    <path id="path3" d="M 5932 -7322 l -522 -3 -46 15 -46 16 -38 31 -37 31 -26 54 -26 53 -5 30 -4 30 -17 50 -17 50 -19 41 -19 40 0 22 0 21 -14 33 -14 33 -20 55 -19 55 -12 45 -12 45 -19 75 -18 75 -21 70 -21 70 -14 30 -14 30 -28 80 -28 80 -18 30 -18 30 0 22 0 21 36 71 36 71 35 29 36 30 63 17 63 17 438 -7 438 -6 71 -6 71 -6 7 27 7 26 -24 52 -25 52 -15 36 -15 36 -7 49 -8 49 -10 20 -11 20 -19 65 -18 65 -13 60 -13 61 -15 44 -15 45 -16 55 -16 55 -6 35 -6 35 -19 55 -18 55 -15 60 -15 60 -22 80 -22 80 -34 125 -33 125 -16 65 -17 65 -39 135 -39 135 0 22 0 23 -14 37 -14 38 -18 55 -17 55 -12 65 -13 65 -11 30 -10 30 -16 50 -17 50 -10 60 -10 60 -13 25 -12 25 -8 40 -7 40 -10 12 -9 12 -10 65 -9 65 -13 33 -14 33 -22 65 -21 65 0 28 0 28 -19 47 -18 47 -22 55 -21 55 0 41 0 40 28 54 27 54 50 27 50 28 25 12 25 11 67 -6 68 -6 412 0 413 1 30 4 30 5 314 4 313 3 38 -8 38 -9 99 -74 99 -74 25 -33 26 -34 26 -63 27 -62 19 -48 19 -47 18 -55 17 -55 13 -70 12 -70 12 -70 12 -70 19 -76 19 -76 0 -32 0 -31 20 -92 20 -91 0 -28 0 -29 27 -77 26 -77 13 -25 14 -26 0 -30 0 -30 19 -100 19 -100 11 -65 11 -65 10 -53 10 -52 21 -122 20 -123 20 -52 20 -51 10 -66 9 -66 11 -78 11 -77 18 -55 18 -55 21 -105 20 -105 10 -55 10 -55 15 -55 16 -55 10 -87 10 -87 9 -23 9 -23 42 -48 43 -48 49 -25 50 -25 57 -10 56 -9 160 10 160 11 70 9 70 10 165 20 165 20 91 0 90 0 60 -11 59 -11 41 -23 41 -24 16 -46 17 -45 23 -58 24 -57 16 -35 16 -35 24 -75 24 -75 12 -63 11 -62 10 -75 10 -75 11 -82 10 -83 15 -90 15 -90 14 -105 14 -105 1 -46 0 -46 -26 -49 -26 -49 -31 -33 -32 -34 -25 -13 -25 -13 -80 -7 -80 -7 -50 -14 -50 -14 -205 1 -205 0 -1265 -10 -1265 -10 -523 -3 z " fill="#0087FF" />
    <path id="path4" d="M 6905 -7153 l 480 3 500 5 500 5 390 5 390 5 140 11 140 12 80 29 80 29 31 24 32 25 22 35 23 36 -7 45 -6 44 -35 112 -36 113 -25 110 -25 110 -20 80 -20 80 -10 27 -9 28 -12 42 -12 43 -27 57 -27 58 -31 39 -32 40 -47 26 -47 26 -76 12 -76 11 -214 -24 -214 -24 -164 -3 -163 -3 -69 15 -69 14 -66 32 -67 31 -62 63 -62 62 -27 46 -27 46 -29 84 -29 85 -16 78 -17 79 -14 63 -14 62 -15 65 -15 65 -14 72 -14 73 -17 80 -17 80 -19 90 -20 90 -29 147 -30 148 -15 82 -15 83 -25 130 -24 130 -34 135 -34 135 -7 45 -7 45 -19 85 -19 85 -16 80 -16 80 -8 51 -9 50 -22 90 -21 89 -26 79 -26 80 -39 72 -39 72 -48 45 -48 45 -53 27 -53 27 -86 13 -86 13 -205 -4 -205 -4 -400 -5 -400 -5 -49 -10 -50 -11 -34 -25 -33 -26 -10 -26 -10 -27 0 -67 0 -68 16 -67 16 -68 5 -20 5 -20 9 -30 8 -30 32 -120 33 -120 19 -70 19 -70 9 -30 8 -30 15 -55 15 -55 22 -80 22 -80 13 -50 13 -50 16 -55 15 -55 26 -95 25 -95 14 -50 14 -50 22 -80 22 -80 24 -90 24 -90 16 -55 16 -55 13 -50 13 -50 31 -115 31 -115 16 -55 15 -55 24 -90 24 -90 34 -135 34 -135 13 -85 13 -86 -12 -52 -11 -53 -16 -32 -17 -31 -41 -40 -41 -39 -50 -22 -50 -22 -55 -13 -55 -13 -320 -7 -320 -7 -40 -13 -40 -12 -38 -30 -38 -30 -14 -29 -15 -28 0 -50 0 -50 14 -68 15 -68 60 -180 60 -180 35 -97 35 -97 45 -89 45 -89 27 -32 27 -32 40 -21 41 -21 31 -10 30 -11 445 -7 445 -6 480 4 z " fill="#0087FF" />
  </g>
</svg>